<!DOCTYPE svg PUBLIC "-//W3C//DTD SVG 1.1//EN" "http://www.w3.org/Graphics/SVG/1.1/DTD/svg11.dtd">
<!-- Uploaded to: SVG Repo, www.svgrepo.com, Transformed by: SVG Repo Mixer Tools -->
<svg width="800px" height="800px" viewBox="-2.4 -2.4 28.80 28.80" fill="none" xmlns="http://www.w3.org/2000/svg" stroke="#000000" stroke-width="0.00024000000000000003" style="--darkreader-inline-stroke: #e8e6e3;" data-darkreader-inline-stroke="">
<g id="SVGRepo_bgCarrier" stroke-width="0" transform="translate(4.68,4.68), scale(0.61)">
<rect x="-2.4" y="-2.4" width="28.80" height="28.80" rx="6.048000000000001" fill="#c0c0c0" strokewidth="0" style="--darkreader-inline-fill: #3c4143;" data-darkreader-inline-fill=""/>
</g>
<g id="SVGRepo_tracerCarrier" stroke-linecap="round" stroke-linejoin="round"/>
<g id="SVGRepo_iconCarrier"> <path fill-rule="evenodd" clip-rule="evenodd" d="M6 5C5.44772 5 5 5.44772 5 6V13V18C5 18.5523 5.44772 19 6 19H18C18.5523 19 19 18.5523 19 18V13V6C19 5.44772 18.5523 5 18 5H6ZM3 6C3 4.34315 4.34315 3 6 3H18C19.6569 3 21 4.34315 21 6V13V18C21 19.6569 19.6569 21 18 21H6C4.34315 21 3 19.6569 3 18V13V6Z" fill="#ffffff" style="--darkreader-inline-fill: #181a1b;" data-darkreader-inline-fill=""/> </g>
</svg>