<!DOCTYPE svg PUBLIC "-//W3C//DTD SVG 1.1//EN" "http://www.w3.org/Graphics/SVG/1.1/DTD/svg11.dtd">
<!-- Uploaded to: SVG Repo, www.svgrepo.com, Transformed by: SVG Repo Mixer Tools -->
<svg width="800px" height="800px" viewBox="-2.4 -2.4 28.80 28.80" xmlns="http://www.w3.org/2000/svg" fill="#000000" style="--darkreader-inline-fill: var(--darkreader-background-000000, #000000);" data-darkreader-inline-fill="">
<g id="SVGRepo_bgCarrier" stroke-width="0" transform="translate(5.16,5.16), scale(0.57)">
<rect x="-2.4" y="-2.4" width="28.80" height="28.80" rx="8.352" fill="#ffffff" strokewidth="0" style="--darkreader-inline-fill: var(--darkreader-background-ffffff, #181a1b);" data-darkreader-inline-fill=""/>
</g>
<g id="SVGRepo_tracerCarrier" stroke-linecap="round" stroke-linejoin="round"/>
<g id="SVGRepo_iconCarrier"> <g> <path fill="none" d="M0 0h24v24H0z"/> <path d="M3 3h18a1 1 0 0 1 1 1v16a1 1 0 0 1-1 1H3a1 1 0 0 1-1-1V4a1 1 0 0 1 1-1zm4.5 8.25V9H6v6h1.5v-2.25h2V15H11V9H9.5v2.25h-2zM16.25 15H17a1 1 0 0 0 1-1v-4a1 1 0 0 0-1-1h-3a1 1 0 0 0-1 1v4a1 1 0 0 0 1 1h.75v1.5h1.5V15zm-1.75-4.5h2v3h-2v-3z"/> </g> </g>
</svg>