<svg viewBox="-2.4 -2.4 28.80 28.80" fill="none" xmlns="http://www.w3.org/2000/svg"><g id="SVGRepo_bgCarrier" stroke-width="0" transform="translate(5.64,5.64), scale(0.53)"><rect x="-2.4" y="-2.4" width="28.80" height="28.80" rx="0.5760000000000001" fill="#0078d7" strokewidth="0" style="--darkreader-inline-fill: #0060ac;" data-darkreader-inline-fill=""></rect></g><g id="SVGRepo_tracerCarrier" stroke-linecap="round" stroke-linejoin="round"></g><g id="SVGRepo_iconCarrier"> <path d="M16.19 2H7.81C4.17 2 2 4.17 2 7.81V16.18C2 19.83 4.17 22 7.81 22H16.18C19.82 22 21.99 19.83 21.99 16.19V7.81C22 4.17 19.83 2 16.19 2ZM14.66 13.73L13.38 14.47L12.1 15.21C10.45 16.16 9.1 15.38 9.1 13.48V12V10.52C9.1 8.61 10.45 7.84 12.1 8.79L13.38 9.53L14.66 10.27C16.31 11.22 16.31 12.78 14.66 13.73Z" fill="#0c0d0e" style="--darkreader-inline-fill: #0a0b0b;" data-darkreader-inline-fill=""></path> </g></svg>